<?xml version="1.0" encoding="UTF-8"?>
<svg width="138px" height="138px" viewBox="0 0 138 138" version="1.1" xmlns="http://www.w3.org/2000/svg" xmlns:xlink="http://www.w3.org/1999/xlink">
    <!-- Generator: Sketch 59.1 (86144) - https://sketch.com -->
    <title>Fill-21 Clipped</title>
    <desc>Created with Sketch.</desc>
    <defs>
        <path d="M64.7877216,1.27077716 L4.45660628,27.4506118 C2.04509558,28.4909608 0.489135038,30.8910642 0.489135038,33.5603807 L0.489135038,33.5603807 C0.489135038,36.2296971 2.04509558,38.6252376 4.44291748,39.6633051 L4.44291748,39.6633051 L31.1566154,51.2554393 L4.45204335,62.8407291 C2.04509558,63.8810781 0.489135038,66.2766185 0.489135038,68.9504979 L0.489135038,68.9504979 C0.489135038,71.6198144 2.04509558,74.0176363 4.44291748,75.0534223 L4.44291748,75.0534223 L31.154334,86.6387121 L4.45204335,98.2217205 C2.04509558,99.2666324 0.489135038,101.664454 0.489135038,104.336052 L0.489135038,104.336052 C0.489135038,107.005369 2.04509558,109.405472 4.44291748,110.438977 L4.44291748,110.438977 L64.7922845,136.623374 C66.1383501,137.20743 67.5848002,137.508583 69.0517836,137.510865 L69.0517836,137.510865 C70.5027966,137.510865 71.9560911,137.216556 73.3112826,136.623374 L73.3112826,136.623374 L133.649242,110.448103 C136.060753,109.405472 137.616714,107.005369 137.616714,104.336052 L137.616714,104.336052 C137.616714,101.664454 136.060753,99.2666324 133.66065,98.2285649 L133.66065,98.2285649 L106.951515,86.6432751 L133.651524,75.0557038 C136.060753,74.0176363 137.618995,71.6198144 137.618995,68.9504979 L137.618995,68.9504979 C137.618995,66.2766185 136.060753,63.8787966 133.66065,62.8407291 L133.66065,62.8407291 L106.949233,51.2508764 L133.651524,39.6655866 C136.060753,38.6229561 137.618995,36.2274157 137.618995,33.5580992 L137.618995,33.5580992 C137.618995,30.8865013 136.060753,28.4863979 133.66065,27.4528933 L133.66065,27.4528933 L73.3226899,1.27534009 C71.9697799,0.679877188 70.5119225,0.381005001 69.0563465,0.381005001 L69.0563465,0.381005001 C67.6007705,0.381005001 66.1451945,0.677595721 64.7877216,1.27077716 L64.7877216,1.27077716 Z M68.3194326,57.7348058 L12.6037252,33.5603807 L68.3194326,9.38595554 L68.3285585,9.38139261 C68.7939778,9.18746791 69.3050264,9.17606057 69.7864159,9.38595554 L69.7864159,9.38595554 L125.504405,33.5603807 L69.7864159,57.7348058 C69.5445804,57.8397533 69.2936191,57.8899455 69.0472206,57.8899455 L69.0472206,57.8899455 C68.7985407,57.8899455 68.5521423,57.8397533 68.3194326,57.7348058 L68.3194326,57.7348058 Z M68.3194326,93.124923 L12.6037252,68.945935 L42.2696416,56.0761792 L64.794566,65.8522656 C66.1406316,66.4317583 67.5870817,66.7374749 69.054065,66.7397563 L69.054065,66.7397563 C70.5050781,66.7397563 71.9583726,66.4408841 73.3112826,65.8522656 L73.3112826,65.8522656 L95.836207,56.0784607 L125.504405,68.9527794 L69.7864159,93.124923 C69.5445804,93.2275891 69.2936191,93.2777813 69.0472206,93.2777813 L69.0472206,93.2777813 C68.7985407,93.2777813 68.5521423,93.2275891 68.3194326,93.124923 L68.3194326,93.124923 Z M73.3112826,101.23782 L95.8384885,91.4617335 L125.504405,104.336052 L69.7864159,128.510477 C69.3027449,128.715809 68.7871334,128.715809 68.3194326,128.510477 L68.3194326,128.510477 L12.6037252,104.336052 L42.2673601,91.4617335 L64.794566,101.23782 C66.1406316,101.817313 67.5870817,102.120748 69.054065,102.123029 L69.054065,102.123029 C70.5050781,102.123029 71.9583726,101.82872 73.3112826,101.23782 L73.3112826,101.23782 Z" id="path-1"></path>
    </defs>
    <g id="Page-1" stroke="none" stroke-width="1" fill="none" fill-rule="evenodd">
        <g id="Fill-21-Clipped">
            <mask id="mask-2" fill="white">
                <use xlink:href="#path-1"></use>
            </mask>
            <g id="path-3"></g>
            <polygon id="Fill-21" fill="#1F364A" fill-rule="nonzero" mask="url(#mask-2)" points="-3.4509586 141.45324 141.559089 141.45324 141.559089 -3.55908864 -3.4509586 -3.55908864"></polygon>
        </g>
    </g>
</svg>